<?xml version="1.0" encoding="UTF-8" standalone="no"?>
<!-- Created with Inkscape (http://www.inkscape.org/) -->

<svg
   width="96.221916mm"
   height="77.194656mm"
   viewBox="0 0 96.221916 77.194656"
   version="1.1"
   id="svg5"
   inkscape:version="1.1.1 (3bf5ae0d25, 2021-09-20)"
   sodipodi:docname="diffur_nerazresh.svg"
   xmlns:inkscape="http://www.inkscape.org/namespaces/inkscape"
   xmlns:sodipodi="http://sodipodi.sourceforge.net/DTD/sodipodi-0.dtd"
   xmlns="http://www.w3.org/2000/svg"
   xmlns:svg="http://www.w3.org/2000/svg">
  <sodipodi:namedview
     id="namedview7"
     pagecolor="#ffffff"
     bordercolor="#666666"
     borderopacity="1.0"
     inkscape:pageshadow="2"
     inkscape:pageopacity="0.0"
     inkscape:pagecheckerboard="0"
     inkscape:document-units="mm"
     showgrid="false"
     units="mm"
     fit-margin-left="1"
     fit-margin-top="1"
     fit-margin-right="1"
     fit-margin-bottom="1"
     lock-margins="true"
     inkscape:zoom="0.92648709"
     inkscape:cx="259.58268"
     inkscape:cy="65.300424"
     inkscape:window-width="1366"
     inkscape:window-height="705"
     inkscape:window-x="-8"
     inkscape:window-y="-8"
     inkscape:window-maximized="1"
     inkscape:current-layer="layer1" />
  <defs
     id="defs2">
    <inkscape:perspective
       sodipodi:type="inkscape:persp3d"
       inkscape:vp_x="-48.643676 : -35.613834 : 1"
       inkscape:vp_y="0 : 999.99994 : 0"
       inkscape:vp_z="161.35633 : -35.613834 : 1"
       inkscape:persp3d-origin="56.35633 : -85.113827 : 1"
       id="perspective2541" />
  </defs>
  <g
     inkscape:label="Слой 1"
     inkscape:groupmode="layer"
     id="layer1"
     transform="translate(-43.655622,-18.199424)">
    <path
       style="fill:none;stroke:#000000;stroke-width:0.264583px;stroke-linecap:butt;stroke-linejoin:miter;stroke-opacity:1"
       d="m 64.581883,19.313469 c -0.270888,1.250861 0.559837,51.837637 0.559837,51.837637 l 54.68344,0.29241"
       id="path997" />
    <path
       style="fill:none;stroke:#000000;stroke-width:0.264583px;stroke-linecap:butt;stroke-linejoin:miter;stroke-opacity:1"
       d="M 65.14172,71.151106 44.843112,94.088975"
       id="path999" />
    <path
       style="fill:none;stroke:#000000;stroke-width:0.264583px;stroke-linecap:butt;stroke-linejoin:miter;stroke-opacity:1"
       d="M 57.175373,50.080907 C 74.423991,5.7977182 127.4733,53.944781 100.39118,76.722628"
       id="path1036" />
    <path
       style="fill:none;stroke:#000000;stroke-width:0.1;stroke-linecap:butt;stroke-linejoin:miter;stroke-miterlimit:4;stroke-dasharray:none;stroke-opacity:1"
       d="m 57.175373,50.080907 c -6.246733,11.192819 4.534921,6.486459 8.505909,11.533915 2.569896,3.266551 0.743607,8.37756 3.413202,11.761345 2.375569,3.011101 8.769302,0.104156 12.153881,1.072166 3.952042,1.130308 6.241574,5.916086 10.645934,5.872549 2.122117,-0.02098 7.027341,-3.37996 8.496881,-3.598254"
       id="path1042" />
    <path
       style="fill:none;stroke:#000000;stroke-width:0.3;stroke-linecap:butt;stroke-linejoin:miter;stroke-miterlimit:4;stroke-dasharray:0.3, 0.9;stroke-dashoffset:0;stroke-opacity:1"
       d="M 57.175373,50.080907 C 68.837666,53.96285 102.11606,61.206834 100.39118,76.722628"
       id="path1285" />
    <g
       sodipodi:type="inkscape:box3d"
       id="g2543"
       style="opacity:0.881407;fill:none;stroke:#ff0000;stroke-width:1.13386;stroke-miterlimit:4;stroke-dasharray:1.13386, 3.40157;stroke-dashoffset:0"
       inkscape:perspectiveID="#perspective2541"
       inkscape:corner0="0.14299165 : 0.17096802 : 0 : 1"
       inkscape:corner7="0.14243017 : 0.14450356 : 0.25 : 1">
      <path
         sodipodi:type="inkscape:box3dside"
         id="path2555"
         style="fill:#e9e9ff;fill-rule:evenodd;stroke:none;stroke-linejoin:round"
         inkscape:box3dsidetype="11"
         d="m 108.07795,43.808526 0.0456,-0.03516 v 19.005951 l -0.0456,0.0275 z"
         points="108.12355,43.773364 108.12355,62.779315 108.07795,62.806816 108.07795,43.808526 " />
      <path
         sodipodi:type="inkscape:box3dside"
         id="path2545"
         style="fill:#353564;fill-rule:evenodd;stroke:none;stroke-linejoin:round"
         inkscape:box3dsidetype="6"
         d="M 86.876138,24.735905 V 47.889582 L 108.07795,62.806816 V 43.808526 Z"
         points="86.876138,47.889582 108.07795,62.806816 108.07795,43.808526 86.876138,24.735905 " />
      <path
         sodipodi:type="inkscape:box3dside"
         id="path2547"
         style="fill:#4d4d9f;fill-rule:evenodd;stroke:none;stroke-linejoin:round"
         inkscape:box3dsidetype="5"
         d="m 86.876138,24.735905 0.04515,-0.05223 21.202263,19.08969 -0.0456,0.03516 z"
         points="86.921287,24.683674 108.12355,43.773364 108.07795,43.808526 86.876138,24.735905 " />
      <path
         sodipodi:type="inkscape:box3dside"
         id="path2553"
         style="fill:#afafde;fill-rule:evenodd;stroke:none;stroke-linejoin:round"
         inkscape:box3dsidetype="13"
         d="m 86.876138,47.889582 0.04515,-0.04085 21.202263,14.930584 -0.0456,0.0275 z"
         points="86.921287,47.848731 108.12355,62.779315 108.07795,62.806816 86.876138,47.889582 " />
      <path
         sodipodi:type="inkscape:box3dside"
         id="path2551"
         style="fill:#d7d7ff;fill-rule:evenodd;stroke:none;stroke-linejoin:round"
         inkscape:box3dsidetype="14"
         d="M 86.921287,24.683674 V 47.848731 L 108.12355,62.779315 V 43.773364 Z"
         points="86.921287,47.848731 108.12355,62.779315 108.12355,43.773364 86.921287,24.683674 " />
      <path
         sodipodi:type="inkscape:box3dside"
         id="path2549"
         style="fill:#8686bf;fill-rule:evenodd;stroke:none;stroke-linejoin:round"
         inkscape:box3dsidetype="3"
         d="m 86.876138,24.735905 0.04515,-0.05223 v 23.165057 l -0.04515,0.04085 z"
         points="86.921287,24.683674 86.921287,47.848731 86.876138,47.889582 86.876138,24.735905 " />
    </g>
    <path
       style="fill:none;stroke:#000000;stroke-width:0.264583px;stroke-linecap:butt;stroke-linejoin:miter;stroke-opacity:1"
       d="m 96.74019,43.881481 c -0.150423,0.900306 0,0.629788 0,0 z"
       id="path2670" />
    <path
       style="fill:none;stroke:#000000;stroke-width:0.264583px;stroke-linecap:butt;stroke-linejoin:miter;stroke-opacity:1"
       d="M 109.00243,33.265406 C 107.99111,33.403489 96.740188,43.881481 96.740188,43.881481"
       id="path2705" />
    <path
       style="fill:none;stroke:#000000;stroke-width:0.264583px;stroke-linecap:butt;stroke-linejoin:miter;stroke-opacity:1"
       d="m 108.2566,34.690462 c 0.29433,-0.453234 0.60911,-0.966115 0.74583,-1.425056"
       id="path2777" />
    <path
       style="fill:none;stroke:#000000;stroke-width:0.264583px;stroke-linecap:butt;stroke-linejoin:miter;stroke-opacity:1"
       d="m 107.19032,33.501568 c 0.69642,0.13218 1.36943,-0.04203 1.81211,-0.236162"
       id="path2779" />
    <path
       style="fill:none;stroke:#000000;stroke-width:0.264583px;stroke-linecap:butt;stroke-linejoin:miter;stroke-opacity:1"
       d="m 45.262067,89.424133 c -0.804829,1.402152 -0.318321,3.544324 -0.418955,4.66484 1.299848,-1.079933 3.095973,-1.351381 4.620227,-1.701214"
       id="path2781" />
    <path
       style="fill:none;stroke:#000000;stroke-width:0.264583px;stroke-linecap:butt;stroke-linejoin:miter;stroke-opacity:1"
       d="m 118.32396,70.428929 c 0.53897,0.398452 1.01987,0.899236 1.5012,1.014587"
       id="path2787" />
    <path
       style="fill:none;stroke:#000000;stroke-width:0.264583px;stroke-linecap:butt;stroke-linejoin:miter;stroke-opacity:1"
       d="m 118.3942,72.127556 c 0.40732,-0.491148 1.04947,-0.620522 1.43096,-0.68404"
       id="path2789" />
    <path
       style="fill:none;stroke:#000000;stroke-width:0.264583px;stroke-linecap:butt;stroke-linejoin:miter;stroke-opacity:1"
       d="m 64.581883,19.313469 c -0.331213,0.897025 -0.778129,1.659609 -1.237435,2.479653"
       id="path2791" />
    <path
       style="fill:none;stroke:#000000;stroke-width:0.264583px;stroke-linecap:butt;stroke-linejoin:miter;stroke-opacity:1"
       d="m 64.581883,19.313469 c 0.24035,0.141292 0.94968,2.296522 1.002075,2.448064"
       id="path2793" />
    <text
       xml:space="preserve"
       style="font-size:3.52777px;line-height:1.25;font-family:sans-serif;stroke-width:0.264583"
       x="52.546154"
       y="91.241837"
       id="text6055"><tspan
         sodipodi:role="line"
         id="tspan6053"
         style="stroke-width:0.264583"
         x="52.546154"
         y="91.241837">$t$</tspan></text>
    <text
       xml:space="preserve"
       style="font-size:3.52777px;line-height:1.25;font-family:sans-serif;stroke-width:0.264583"
       x="111.94615"
       y="74.821152"
       id="text16946"><tspan
         sodipodi:role="line"
         id="tspan16944"
         style="stroke-width:0.264583"
         x="111.94615"
         y="74.821152">$x$</tspan></text>
    <text
       xml:space="preserve"
       style="font-size:3.52777px;line-height:1.25;font-family:sans-serif;stroke-width:0.264583"
       x="66.155113"
       y="26.116581"
       id="text21752"><tspan
         sodipodi:role="line"
         id="tspan21750"
         style="stroke-width:0.264583"
         x="66.155113"
         y="26.116581">$p$</tspan></text>
    <text
       xml:space="preserve"
       style="font-size:3.52777px;line-height:1.25;font-family:sans-serif;stroke-width:0.264583"
       x="71.394226"
       y="64.96875"
       id="text23890"><tspan
         sodipodi:role="line"
         id="tspan23888"
         style="stroke-width:0.264583"
         x="71.394226"
         y="64.96875">$F=0$</tspan></text>
    <text
       xml:space="preserve"
       style="font-size:3.52777px;line-height:1.25;font-family:sans-serif;stroke-width:0.264583"
       x="95.953835"
       y="31.127884"
       id="text29834"><tspan
         sodipodi:role="line"
         id="tspan29832"
         style="stroke-width:0.264583"
         x="95.953835"
         y="31.127884">$\Vec n=(F_x,F_t,F_p)$</tspan></text>
  </g>
</svg>
