<?xml version="1.0" encoding="UTF-8" standalone="no"?>
<!-- Created with Inkscape (http://www.inkscape.org/) -->

<svg
   width="92.271805mm"
   height="77.858704mm"
   viewBox="0 0 92.271805 77.858704"
   version="1.1"
   id="svg5"
   inkscape:version="1.1.1 (3bf5ae0d25, 2021-09-20)"
   sodipodi:docname="Lotka-Volterra.svg"
   xmlns:inkscape="http://www.inkscape.org/namespaces/inkscape"
   xmlns:sodipodi="http://sodipodi.sourceforge.net/DTD/sodipodi-0.dtd"
   xmlns="http://www.w3.org/2000/svg"
   xmlns:svg="http://www.w3.org/2000/svg">
  <sodipodi:namedview
     id="namedview7"
     pagecolor="#ffffff"
     bordercolor="#666666"
     borderopacity="1.0"
     inkscape:pageshadow="2"
     inkscape:pageopacity="0.0"
     inkscape:pagecheckerboard="0"
     inkscape:document-units="mm"
     showgrid="false"
     inkscape:zoom="0.65512531"
     inkscape:cx="324.36543"
     inkscape:cy="118.29798"
     inkscape:window-width="1366"
     inkscape:window-height="705"
     inkscape:window-x="-8"
     inkscape:window-y="-8"
     inkscape:window-maximized="1"
     inkscape:current-layer="layer1" />
  <defs
     id="defs2" />
  <g
     inkscape:label="Слой 1"
     inkscape:groupmode="layer"
     id="layer1"
     transform="translate(-19.250017,-12.655549)">
    <path
       style="fill:none;stroke:#000000;stroke-width:0.264583px;stroke-linecap:butt;stroke-linejoin:miter;stroke-opacity:1"
       d="M 35.125961,17.134615 V 69.966344"
       id="path76" />
    <path
       style="fill:none;stroke:#000000;stroke-width:0.264583px;stroke-linecap:butt;stroke-linejoin:miter;stroke-opacity:1"
       d="M 31.127885,65.111537 94.811537,64.825961"
       id="path78" />
    <path
       style="fill:none;stroke:#000000;stroke-width:0.264583px;stroke-linecap:butt;stroke-linejoin:miter;stroke-opacity:1"
       d="M 38.801353,59.053536 19.382122,89.039114"
       id="path80" />
    <path
       style="fill:none;stroke:#000000;stroke-width:0.264583px;stroke-linecap:butt;stroke-linejoin:miter;stroke-opacity:1"
       d="m 92.535969,62.700315 2.275568,2.125646"
       id="path84" />
    <path
       style="fill:none;stroke:#000000;stroke-width:0.264583px;stroke-linecap:butt;stroke-linejoin:miter;stroke-opacity:1"
       d="m 92.535969,66.335115 2.275568,-1.509154"
       id="path86" />
    <path
       style="fill:none;stroke:#000000;stroke-width:0.264583px;stroke-linecap:butt;stroke-linejoin:miter;stroke-opacity:1"
       d="m 19.537054,86.124585 -0.154932,2.914529"
       id="path88" />
    <path
       style="fill:none;stroke:#000000;stroke-width:0.264583px;stroke-linecap:butt;stroke-linejoin:miter;stroke-opacity:1"
       d="m 19.382122,89.039114 2.931516,-0.794229"
       id="path92" />
    <path
       style="fill:none;stroke:#000000;stroke-width:0.264583px;stroke-linecap:butt;stroke-linejoin:miter;stroke-opacity:1"
       d="m 35.125961,17.134615 -1.403088,3.361623"
       id="path94" />
    <path
       style="fill:none;stroke:#000000;stroke-width:0.264583px;stroke-linecap:butt;stroke-linejoin:miter;stroke-opacity:1"
       d="M 36.348008,20.294304 35.125961,17.134615"
       id="path96" />
    <text
       xml:space="preserve"
       style="font-style:normal;font-weight:normal;font-size:10.5833px;line-height:1.25;font-family:sans-serif;fill:#000000;fill-opacity:1;stroke:none;stroke-width:0.264583"
       x="24.534906"
       y="88.648743"
       id="text718"><tspan
         sodipodi:role="line"
         id="tspan716"
         style="stroke-width:0.264583"
         x="24.534906"
         y="88.648743">$x$</tspan></text>
    <text
       xml:space="preserve"
       style="font-style:normal;font-weight:normal;font-size:10.5833px;line-height:1.25;font-family:sans-serif;fill:#000000;fill-opacity:1;stroke:none;stroke-width:0.264583"
       x="92.535965"
       y="62.700314"
       id="text2858"><tspan
         sodipodi:role="line"
         id="tspan2856"
         style="stroke-width:0.264583"
         x="92.535965"
         y="62.700314">$y$</tspan></text>
    <text
       xml:space="preserve"
       style="font-style:normal;font-weight:normal;font-size:10.5833px;line-height:1.25;font-family:sans-serif;fill:#000000;fill-opacity:1;stroke:none;stroke-width:0.264583"
       x="38.043327"
       y="23.626795"
       id="text4248"><tspan
         sodipodi:role="line"
         id="tspan4246"
         style="stroke-width:0.264583"
         x="38.043327"
         y="23.626795">$z$</tspan></text>
    <text
       xml:space="preserve"
       style="font-style:normal;font-weight:normal;font-size:7.05556px;line-height:1.25;font-family:sans-serif;fill:#000000;fill-opacity:1;stroke:none;stroke-width:0.264583"
       x="55.564369"
       y="44.161633"
       id="text5964"><tspan
         sodipodi:role="line"
         id="tspan5962"
         style="font-size:7.05556px;stroke-width:0.264583"
         x="55.564369"
         y="44.161633">$(x_*,y_*)$</tspan></text>
    <text
       xml:space="preserve"
       style="font-style:normal;font-weight:normal;font-size:10.5833px;line-height:1.25;font-family:sans-serif;fill:#000000;fill-opacity:1;stroke:none;stroke-width:0.264583"
       x="72.954155"
       y="57.224342"
       id="text11566"><tspan
         sodipodi:role="line"
         id="tspan11564"
         style="stroke-width:0.264583"
         x="72.954155"
         y="57.224342">$F$</tspan></text>
    <path
       style="fill:none;stroke:#000000;stroke-width:0.264583px;stroke-linecap:butt;stroke-linejoin:miter;stroke-opacity:1"
       d="M 42.651039,69.84174 C 54.930228,34.745595 69.661525,42.23329 75.934676,73.184433"
       id="path1283" />
    <path
       style="opacity:0.881407;fill:#fffffe;fill-opacity:1;stroke:#000000;stroke-width:0.402;stroke-miterlimit:4;stroke-dasharray:0.402, 0.804;stroke-dashoffset:0"
       id="path1431"
       sodipodi:type="arc"
       sodipodi:cx="59.292854"
       sodipodi:cy="71.513084"
       sodipodi:rx="16.641815"
       sodipodi:ry="1.6713465"
       sodipodi:start="0"
       sodipodi:end="6.2596932"
       sodipodi:open="true"
       sodipodi:arc-type="arc"
       d="M 75.934669,71.513084 A 16.641815,1.6713465 0 0 1 59.390592,73.184402 16.641815,1.6713465 0 0 1 42.652187,71.532716 16.641815,1.6713465 0 0 1 58.999656,69.841997 16.641815,1.6713465 0 0 1 75.930078,71.473825" />
    <path
       style="fill:none;stroke:#000000;stroke-width:0.264583px;stroke-linecap:butt;stroke-linejoin:miter;stroke-opacity:1"
       d="m 60.44298,46.163962 c -1.288228,1.19067 1.02839,0.218091 0.127698,0.05456 -1.617329,-0.293638 0.535567,1.579665 0.220279,0.212508 -0.09382,-0.406839 -1.012463,0.08585 -0.699148,0.377634 0.249584,0.232431 0.613899,-0.0543 0.531545,-0.354661 -0.08385,-0.30581 -0.777708,0.219681 -0.529947,0.363276 0.205814,0.119282 0.721228,-0.115506 0.533141,-0.323069 -0.19443,-0.214562 -0.712052,0.122811 -0.480465,0.313018 0.147277,0.120962 0.501547,-0.05831 0.454924,-0.261327 -0.05951,-0.259114 -0.571505,-0.06839 -0.470887,0.08902 0.08381,0.131117 0.585605,-0.02032 0.454925,-0.104817 -0.155414,-0.100481 -0.44667,0.172648 -0.255397,0.26707 0.271396,0.133974 0.368795,-0.393925 0.126103,-0.51404 -0.375745,-0.185965 -0.680635,0.483803 -0.416616,0.684908 0.496523,0.378203 0.936827,-0.75614 0.403845,-0.804085 -0.391454,-0.03521 -0.676548,0.798314 -0.316053,0.867262 1.222041,0.233733 0.325236,-1.25544 -0.04789,-0.601625 -0.178626,0.313002 0.203576,0.913881 0.44854,0.581525 0.444643,-0.603274 -0.631904,-1.106514 -0.33361,-0.384813"
       id="path1825" />
  </g>
</svg>
