<?xml version="1.0" encoding="UTF-8" standalone="no"?>
<!-- Created with Inkscape (http://www.inkscape.org/) -->

<svg
   width="210mm"
   height="297mm"
   viewBox="0 0 210 297"
   version="1.1"
   id="svg5"
   inkscape:version="1.1.1 (3bf5ae0d25, 2021-09-20)"
   sodipodi:docname="Lotka-Volterra.svg"
   xmlns:inkscape="http://www.inkscape.org/namespaces/inkscape"
   xmlns:sodipodi="http://sodipodi.sourceforge.net/DTD/sodipodi-0.dtd"
   xmlns="http://www.w3.org/2000/svg"
   xmlns:svg="http://www.w3.org/2000/svg">
  <sodipodi:namedview
     id="namedview7"
     pagecolor="#ffffff"
     bordercolor="#666666"
     borderopacity="1.0"
     inkscape:pageshadow="2"
     inkscape:pageopacity="0.0"
     inkscape:pagecheckerboard="0"
     inkscape:document-units="mm"
     showgrid="false"
     inkscape:zoom="0.65512531"
     inkscape:cx="304.5219"
     inkscape:cy="173.2493"
     inkscape:window-width="1366"
     inkscape:window-height="705"
     inkscape:window-x="-8"
     inkscape:window-y="-8"
     inkscape:window-maximized="1"
     inkscape:current-layer="layer1" />
  <defs
     id="defs2" />
  <g
     inkscape:label="Слой 1"
     inkscape:groupmode="layer"
     id="layer1">
    <path
       style="fill:none;stroke:#000000;stroke-width:0.264583px;stroke-linecap:butt;stroke-linejoin:miter;stroke-opacity:1"
       d="M 35.125961,17.134615 V 69.966344"
       id="path76" />
    <path
       style="fill:none;stroke:#000000;stroke-width:0.264583px;stroke-linecap:butt;stroke-linejoin:miter;stroke-opacity:1"
       d="M 31.127885,65.111537 94.811537,64.825961"
       id="path78" />
    <path
       style="fill:none;stroke:#000000;stroke-width:0.264583px;stroke-linecap:butt;stroke-linejoin:miter;stroke-opacity:1"
       d="M 38.552884,61.399038 11.708654,95.097115"
       id="path80" />
    <path
       style="fill:none;stroke:#000000;stroke-width:0.264583px;stroke-linecap:butt;stroke-linejoin:miter;stroke-opacity:1"
       d="m 92.535969,62.700315 2.275568,2.125646"
       id="path84" />
    <path
       style="fill:none;stroke:#000000;stroke-width:0.264583px;stroke-linecap:butt;stroke-linejoin:miter;stroke-opacity:1"
       d="m 92.535969,66.335115 2.275568,-1.509154"
       id="path86" />
    <path
       style="fill:none;stroke:#000000;stroke-width:0.264583px;stroke-linecap:butt;stroke-linejoin:miter;stroke-opacity:1"
       d="m 11.863586,92.182586 -0.154932,2.914529"
       id="path88" />
    <path
       style="fill:none;stroke:#000000;stroke-width:0.264583px;stroke-linecap:butt;stroke-linejoin:miter;stroke-opacity:1"
       d="M 11.708654,95.097115 14.64017,94.302886"
       id="path92" />
    <path
       style="fill:none;stroke:#000000;stroke-width:0.264583px;stroke-linecap:butt;stroke-linejoin:miter;stroke-opacity:1"
       d="m 35.125961,17.134615 -1.403088,3.361623"
       id="path94" />
    <path
       style="fill:none;stroke:#000000;stroke-width:0.264583px;stroke-linecap:butt;stroke-linejoin:miter;stroke-opacity:1"
       d="M 36.348008,20.294304 35.125961,17.134615"
       id="path96" />
    <text
       xml:space="preserve"
       style="font-style:normal;font-weight:normal;font-size:10.5833px;line-height:1.25;font-family:sans-serif;fill:#000000;fill-opacity:1;stroke:none;stroke-width:0.264583"
       x="14.64017"
       y="94.302879"
       id="text718"><tspan
         sodipodi:role="line"
         id="tspan716"
         style="stroke-width:0.264583"
         x="14.64017"
         y="94.302879">$x$</tspan></text>
    <text
       xml:space="preserve"
       style="font-style:normal;font-weight:normal;font-size:10.5833px;line-height:1.25;font-family:sans-serif;fill:#000000;fill-opacity:1;stroke:none;stroke-width:0.264583"
       x="92.535965"
       y="62.700314"
       id="text2858"><tspan
         sodipodi:role="line"
         id="tspan2856"
         style="stroke-width:0.264583"
         x="92.535965"
         y="62.700314">$y$</tspan></text>
    <text
       xml:space="preserve"
       style="font-style:normal;font-weight:normal;font-size:10.5833px;line-height:1.25;font-family:sans-serif;fill:#000000;fill-opacity:1;stroke:none;stroke-width:0.264583"
       x="36.348007"
       y="20.294304"
       id="text4248"><tspan
         sodipodi:role="line"
         id="tspan4246"
         style="stroke-width:0.264583"
         x="36.348007"
         y="20.294304">$z$</tspan></text>
    <path
       style="fill:none;stroke:#000000;stroke-width:0.264583px;stroke-linecap:butt;stroke-linejoin:miter;stroke-opacity:1"
       d="M 50.483343,56.339411 C 61.185813,22.616538 71.08055,55.329745 71.08055,55.329745"
       id="path5309" />
    <path
       style="fill:none;stroke:#000000;stroke-width:0.264583px;stroke-linecap:butt;stroke-linejoin:miter;stroke-opacity:1"
       d="m 60.781945,40.588609 c -0.178043,0.128345 -0.249338,0.506064 0,0.605801 0.04687,0.01876 0.101949,-0.0099 0.15145,0 0.0369,0.0074 0.06334,0.05048 0.100968,0.05048 0.105608,0 -0.401122,-1.419024 -0.858216,-0.504833 -0.288626,0.577249 0.764675,0.411292 0.605798,0.252415 -0.170373,-0.170373 -0.544618,0.235434 -0.15145,0.353385 0.03314,0.0099 0.46473,0.108704 0.555318,0 0.346443,-0.415732 -0.462968,-0.61319 -0.555318,-0.15145 -0.01699,0.08491 0.324673,0.150974 0.454351,-0.3029 0.106306,-0.372068 -0.198412,-0.793843 -0.605798,-0.454351 -0.655881,0.546566 0.30925,1.123008 0.403865,0.555316 0.07973,-0.478362 -0.386178,-0.71977 -0.706766,-0.353383 -0.04433,0.05066 -0.03463,0.144214 0,0.201933 0.07964,0.132725 0.168442,0.0085 0.252415,0.05048 0.09905,0.04952 0.353383,0.247465 0.353383,0.15145 0,-0.08824 -0.175805,0.137499 -0.05048,-0.05049 0.02088,-0.03131 0.03366,-0.06731 0.05048,-0.100965"
       id="path5344" />
    <text
       xml:space="preserve"
       style="font-style:normal;font-weight:normal;font-size:7.05556px;line-height:1.25;font-family:sans-serif;fill:#000000;fill-opacity:1;stroke:none;stroke-width:0.264583"
       x="62.498383"
       y="40.083778"
       id="text5964"><tspan
         sodipodi:role="line"
         id="tspan5962"
         style="font-size:7.05556px;stroke-width:0.264583"
         x="62.498383"
         y="40.083778">$(x_*,y_*)$</tspan></text>
    <text
       xml:space="preserve"
       style="font-style:normal;font-weight:normal;font-size:10.5833px;line-height:1.25;font-family:sans-serif;fill:#000000;fill-opacity:1;stroke:none;stroke-width:0.264583"
       x="45.031147"
       y="53.310413"
       id="text11566"><tspan
         sodipodi:role="line"
         id="tspan11564"
         style="stroke-width:0.264583"
         x="45.031147"
         y="53.310413">$F$</tspan></text>
    <path
       style="fill:none;stroke:#000000;stroke-width:0.264583px;stroke-linecap:butt;stroke-linejoin:miter;stroke-opacity:1"
       d="m 61.791614,68.051547 c -0.538491,0 -1.080273,0.05947 -1.615467,0 -0.682244,-0.0758 -1.338193,-0.318723 -2.019334,-0.403865 -1.696535,-0.212067 -3.091294,0.290007 -4.644469,0.807733 -0.263287,0.08776 -0.569751,0.05915 -0.807734,0.201932 -0.129061,0.07744 -0.0955,0.29744 -0.201932,0.403868 -0.74997,0.74997 -1.031566,0.660543 -1.413534,1.615467 -0.159975,0.399936 -0.352994,0.960355 -0.201933,1.413534 0.420151,1.260456 0.431364,1.075401 1.413534,2.221267 0.465659,0.543269 0.870265,1.149807 1.413534,1.615466 2.418363,2.072883 7.199802,2.935015 10.298602,2.625135 2.862487,-0.28625 5.015259,-1.387419 5.250267,-4.442534 0.04646,-0.604017 0.191572,-1.24269 0,-1.817402 -0.52293,-1.568791 -4.168664,-3.061499 -5.654135,-3.432868 -0.655254,-0.163811 -1.11851,-0.63301 -1.817399,-0.807733 z"
       id="path12159" />
    <path
       style="fill:none;stroke:#000000;stroke-width:0.264583px;stroke-linecap:butt;stroke-linejoin:miter;stroke-opacity:1"
       d="m 50.281411,66.234148 c -2.986172,0.688009 -4.225116,3.204387 -5.654135,5.654135 -0.987806,1.693381 -2.046754,3.02097 -0.403866,4.846399 3.530574,3.922861 11.082618,5.433399 16.15467,5.856068 1.765461,0.147122 3.658859,0.762535 5.4522,0.403868 0.897752,-0.179552 1.744832,-0.556218 2.625135,-0.807733 1.271291,-0.363225 2.314014,-0.7986 3.230933,-1.817402 0.324707,-0.360786 0.504515,-0.832575 0.807733,-1.211598 0.923192,-1.153989 2.162826,-2.274475 2.423202,-3.836737 0.150725,-0.904356 -0.02697,-1.467466 -0.403868,-2.221267 C 74.098482,72.270016 73.80066,70.973592 73.099881,70.272814 71.754967,68.9279 69.955666,67.691039 68.253482,66.839948 67.594924,66.510669 66.911375,66.571526 66.234148,66.43608 65.363184,66.261889 64.523714,65.75902 63.609013,65.628347 59.420635,65.030008 54.356611,65.215348 50.281411,66.234148 Z"
       id="path12161" />
    <path
       style="fill:none;stroke:#000000;stroke-width:0.264583px;stroke-linecap:butt;stroke-linejoin:miter;stroke-opacity:1"
       d="m 52.502678,45.233076 c -3.567512,2.594555 -0.92547,0.56248 -4.038666,3.230936 -1.543646,1.32312 -3.11966,2.40258 -4.038669,4.240598 -0.108535,0.217072 -0.232257,0.434192 -0.403868,0.605801 -0.0476,0.0476 -0.201933,-0.06731 -0.201933,0 0,0.06731 0.136634,-0.01633 0.201933,0 0.206502,0.05163 0.399301,0.15031 0.605801,0.201933 1.572299,0.393075 0.612161,0.06774 2.625135,0.201935 1.579215,0.10528 3.089383,0.600387 4.644466,0.807733 2.06094,0.274791 4.197694,0.146087 6.259936,0.403865 1.085435,0.135681 2.136526,0.514602 3.230933,0.605801 1.39016,0.115848 2.845017,0 4.240601,0 1.467115,0 3.530037,0.50863 4.644467,-0.605801 1.240025,-1.240022 2.00551,-3.320647 2.827067,-4.846399 0.585711,-1.087747 1.732368,-1.902433 1.61547,-2.019334 -0.285578,-0.285578 -0.809393,0.03656 -1.211602,0 -1.281067,-0.116462 -2.551189,-0.30498 -3.836733,-0.403868 -1.471798,-0.113215 -2.971588,0.122579 -4.442534,0 -0.961917,-0.08016 -1.902619,-0.6023 -2.827068,-0.807733 -0.197125,-0.0438 -0.407789,0.0396 -0.6058,0 -1.265161,-0.253032 -3.042084,-1.265354 -4.442534,-1.615467 -0.582687,-0.145672 -1.653392,-0.0631 -2.221267,0 -0.551667,0.0613 -1.064692,0.472715 -1.615469,0.403868 -0.359683,-0.04496 -0.673111,-0.269245 -1.009666,-0.403868 z"
       id="path12163" />
    <path
       style="fill:none;stroke:#000000;stroke-width:0.264583px;stroke-linecap:butt;stroke-linejoin:miter;stroke-opacity:1"
       d="m 55.935546,49.06981 c -0.331499,0.0835 -1.545741,-0.675527 -1.817402,-0.403866 -0.827635,0.827635 1.079386,2.527777 1.413534,3.029001 0.207396,0.311091 0.772631,0.487283 1.009668,0.6058 0.887037,0.443519 2.017186,1.099177 3.029001,1.211599 0.997352,0.110818 2.031645,-0.110816 3.029,0 1.200288,0.133365 2.068322,0.166089 3.230933,0 0.466442,-0.06663 1.080362,0.333174 1.413534,0 0.07861,-0.07861 0.544697,-0.624425 0.6058,-0.807734 0.08673,-0.260175 0.299604,-3.035591 0.201933,-3.230932 -0.195437,-0.39088 -2.539643,-0.807734 -3.029,-0.807734"
       id="path12165" />
    <path
       style="fill:none;stroke:#000000;stroke-width:0.264583px;stroke-linecap:butt;stroke-linejoin:miter;stroke-opacity:1"
       d="m 55.935546,49.06981 c 0.790345,-0.47125 6.129142,-2.828833 0,0"
       id="path12167" />
    <path
       style="fill:none;stroke:#000000;stroke-width:0.264583px;stroke-linecap:butt;stroke-linejoin:miter;stroke-opacity:1"
       d="m 60.580013,48.464012 c 1.732655,0.559633 2.180812,0.352713 4.442534,0.201932"
       id="path12169" />
    <path
       style="fill:none;stroke:#000000;stroke-width:0.264583px;stroke-linecap:butt;stroke-linejoin:miter;stroke-opacity:1"
       d="m 55.935546,49.06981 c -0.875046,0.538488 -1.95222,0.839028 -2.625135,1.615469 -0.430281,0.496477 0.354473,6.605701 0.201933,7.673467 -0.117121,0.819848 -0.488678,1.603351 -0.605798,2.423199 -0.08524,0.596667 -0.01241,1.450774 -0.201936,2.019335 -0.0301,0.09031 -0.134622,0.134622 -0.201932,0.201932 -0.06731,0.201936 -0.166939,0.395841 -0.201933,0.605801 -0.08688,0.521245 0.103574,1.0976 0,1.615469 -0.241178,1.205894 0.08098,3.391855 -0.201935,4.240599 -0.20823,0.624691 -0.201933,1.289423 -0.201933,2.019334"
       id="path12171" />
    <path
       style="fill:none;stroke:#000000;stroke-width:0.264583px;stroke-linecap:butt;stroke-linejoin:miter;stroke-opacity:1"
       d="m 65.022547,48.665944 c 1.144288,1.144289 2.614477,2.036789 3.432868,3.432866 0.320445,0.546642 -0.119822,6.841402 0,8.27927 0.03953,0.474316 0.158842,0.939527 0.201932,1.413534 0.102484,1.12731 -0.159993,2.312916 0,3.432868 0.213143,1.491993 0.824154,2.958425 1.009669,4.442534 0.153223,1.225799 0,2.597179 0,3.836733"
       id="path12173" />
  </g>
</svg>
